PathFileType	4	(X/Y/Z)	6_coords_data.trc
DataRate	CameraRate	NumFrames	NumMarkers	Units	OrigDataRate	OrigDataStartFrame	OrigNumFrames
30.0	30.0	6	21	m	30.0	11	60
Frame#	Time	THUMB_TIP	THUMB_IP	THUMB_MCP	THUMB_CMC	INDEX_TIP	INDEX_DIP	INDEX_PIP	INDEX_MCP	MIDDLE_TIP	MIDDLE_DIP	MIDDLE_PIP	MIDDLE_MCP	RING_TIP	RING_DIP	RING_PIP	RING_MCP	PINKY_TIP	PINKY_DIP	PINKY_PIP	PINKY_MCP	WRIST
X1	Y1	Z1	X2	Y2	Z2	X3	Y3	Z3	X4	Y4	Z4	X5	Y5	Z5	X6	Y6	Z6	X7	Y7	Z7	X8	Y8	Z8	X9	Y9	Z9	X10	Y10	Z10	X11	Y11	Z11	X12	Y12	Z12	X13	Y13	Z13	X14	Y14	Z14	X15	Y15	Z15	X16	Y16	Z16	X17	Y17	Z17	X18	Y18	Z18	X19	Y19	Z19	X20	Y20	Z20	X21	Y21	Z21
10	0.3333333333333333	0.005154190063476562	-0.09869120025634766	1.0506800537109375	-0.01951070022583008	-0.10056900024414063	1.0524300537109375	-0.03423410034179687	-0.07790280151367188	1.0548499755859375	-0.02140130043029785	-0.04842340087890625	1.0638699951171875	-0.007993579864501953	-0.13067999267578126	0.9586129760742188	-0.011325099945068359	-0.11197000122070312	0.9698319702148438	-0.014541500091552735	-0.09252490234375	0.9843770141601562	-0.014853899955749511	-0.0568572998046875	1.0046799926757812	-0.013965200424194336	-0.07443270111083984	1.058949951171875	-0.00590296983718872	-0.08536710357666015	1.045300048828125	0.004750030040740967	-0.09159339904785156	1.0221799926757813	0.009830479621887206	-0.05162889862060547	1.0034400024414063	-0.0017247400283813472	-0.07243280029296875	1.0695799560546875	0.006776189804077149	-0.08458679962158203	1.0551600341796874	0.022291400909423827	-0.09029940032958984	1.033010009765625	0.030328800201416015	-0.051252498626708984	1.018010009765625	0.06608409881591797	-0.1100270004272461	1.0043400268554687	0.05704019927978515	-0.09482990264892578	1.0163900146484375	0.04827750015258789	-0.08031690216064453	1.0260799560546876	0.036841800689697266	-0.05536840057373047	1.03997998046875	-0.009102060317993163	-0.013244400024414063	1.0834100341796875
11	0.36666666666666664	0.0053757400512695315	-0.09865470123291016	1.050800048828125	-0.019155500411987304	-0.100552001953125	1.052530029296875	-0.034067001342773434	-0.0780615005493164	1.054780029296875	-0.021416400909423827	-0.04856669998168945	1.0638499755859374	-0.007933740139007567	-0.13093499755859375	0.9590780029296875	-0.011225099563598634	-0.11217400360107421	0.970176025390625	-0.01446310043334961	-0.09270590209960937	0.9846079711914062	-0.014730400085449218	-0.05695709991455078	1.0046900024414063	-0.013660499572753906	-0.07466809844970704	1.0574100341796875	-0.005704639911651611	-0.08532240295410157	1.0453599853515625	0.005011410236358643	-0.0914395980834961	1.022280029296875	0.009966560363769531	-0.05160580062866211	1.00347998046875	-0.00150478994846344	-0.07247820281982421	1.0714200439453125	0.007161109924316406	-0.08442109680175781	1.05527001953125	0.02242289924621582	-0.09035980224609375	1.0330799560546875	0.030422899246215822	-0.05118180084228516	1.0179199829101562	0.06623400115966797	-0.10997100067138672	1.0044099731445313	0.057165500640869144	-0.09475550079345703	1.016469970703125	0.04846799850463867	-0.08025759887695312	1.0262900390625	0.03699549865722656	-0.05533000183105469	1.0398399658203126	-0.00895131015777588	-0.01316689968109131	1.083489990234375
12	0.4	0.005551730155944824	-0.09855380249023438	1.051219970703125	-0.019133800506591796	-0.10059100341796876	1.05243994140625	-0.0340010986328125	-0.07803250122070313	1.05502001953125	-0.021449199676513674	-0.04859120178222656	1.063969970703125	-0.007973360061645509	-0.13125300598144532	0.9595700073242187	-0.011261199951171875	-0.11235900115966797	0.9705130004882813	-0.014483499526977538	-0.09271080017089844	0.98485400390625	-0.014718000411987304	-0.05688589859008789	1.0048200073242188	-0.013418000221252441	-0.07456310272216797	1.0571600341796874	-0.005532690048217773	-0.08539299774169921	1.04577001953125	0.004961770057678222	-0.09149710083007813	1.022219970703125	0.00986026954650879	-0.05160290145874023	1.0035999755859375	-0.0015103000402450562	-0.07249459838867188	1.0710699462890625	0.007107840061187744	-0.08440440368652344	1.05518994140625	0.022497400283813477	-0.09032039642333985	1.032949951171875	0.030476200103759767	-0.0511234016418457	1.018	0.06616950225830077	-0.1100469970703125	1.004510009765625	0.05708359909057617	-0.09483380126953125	1.016530029296875	0.04837689971923828	-0.08035230255126953	1.0261099853515625	0.03696789932250977	-0.05540420150756836	1.039989990234375	-0.009038169860839844	-0.013189200401306153	1.083530029296875
13	0.43333333333333335	0.005449180126190185	-0.09854270172119141	1.0512099609375	-0.01933970069885254	-0.10062100219726562	1.0526099853515625	-0.034242099761962894	-0.07816280364990234	1.054760009765625	-0.021521799087524413	-0.0486416015625	1.0638900146484376	-0.00835774040222168	-0.13149000549316406	0.959926025390625	-0.011574000358581542	-0.11254399871826172	0.97077001953125	-0.014775699615478515	-0.09279489898681641	0.9850390014648438	-0.014910099983215332	-0.056893901824951174	1.004760009765625	-0.013701299667358398	-0.07503150177001953	1.0571400146484375	-0.005739200115203858	-0.08534410095214844	1.0459000244140626	0.0046998801231384274	-0.09163670349121093	1.0221900024414063	0.009770970344543457	-0.05162060165405274	1.00347998046875	-0.002114629983901977	-0.07366500091552734	1.0698800048828125	0.007000239849090576	-0.08440129852294923	1.05547998046875	0.022236900329589845	-0.09049659729003906	1.0328800048828124	0.030188100814819336	-0.05127849960327149	1.0178900146484375	0.0659009017944336	-0.11016600036621094	1.0045399780273438	0.05688249969482422	-0.09498490142822266	1.0165900268554688	0.048191001892089844	-0.08050469970703125	1.0261400146484374	0.036777801513671875	-0.05537969970703125	1.0401099853515625	-0.009128589630126954	-0.013218700408935547	1.08352001953125
14	0.4666666666666667	0.0052957901954650876	-0.09866680145263672	1.05106005859375	-0.019399499893188475	-0.10070800018310547	1.052489990234375	-0.03422620010375976	-0.07811190032958984	1.05502001953125	-0.02153730010986328	-0.04846310043334961	1.0640999755859375	-0.00863698959350586	-0.13170500183105469	0.9602210083007813	-0.011803799629211426	-0.1127490005493164	0.9709539794921875	-0.014974100112915039	-0.0929207992553711	0.9851959838867187	-0.014955100059509277	-0.056965099334716794	1.0046199951171875	-0.013568499565124511	-0.0747394027709961	1.0571400146484375	-0.00592441987991333	-0.08549949645996094	1.04625	0.004525469779968262	-0.09168620300292969	1.0221799926757813	0.009498209953308105	-0.05168980026245117	1.0036099853515625	-0.0016153899431228629	-0.0725791015625	1.0698900146484376	0.006886000156402588	-0.0845958023071289	1.055530029296875	0.021993600845336914	-0.09039759826660156	1.0330699462890625	0.030116199493408203	-0.051254501342773436	1.0178599853515624	0.06567639923095703	-0.11025199890136719	1.0045399780273438	0.05668889999389649	-0.09503800201416016	1.0165700073242188	0.04804510116577149	-0.08045120239257812	1.0263199462890624	0.03674549865722656	-0.05549209976196289	1.0398499755859374	-0.009306349754333497	-0.013245699882507324	1.0835799560546875
15	0.5	0.005024670124053955	-0.09884030151367187	1.0506800537109375	-0.019516599655151366	-0.1007249984741211	1.05252001953125	-0.034399799346923825	-0.07819219970703126	1.0549000244140625	-0.021806499481201173	-0.048554000854492185	1.064050048828125	-0.008860030174255372	-0.1317830047607422	0.9603070068359375	-0.011994799613952637	-0.11279599761962891	0.9709760131835937	-0.015103199958801269	-0.09301110076904297	0.9851229858398437	-0.0153262996673584	-0.056969799041748044	1.004719970703125	-0.014167200088500977	-0.07483889770507812	1.0568699951171876	-0.006111030101776123	-0.08549590301513672	1.0459000244140626	0.004384640216827392	-0.091731201171875	1.0221599731445312	0.009417530059814452	-0.05168600082397461	1.0035499877929688	-0.001613430023193359	-0.07247019958496094	1.072030029296875	0.00686240005493164	-0.08408899688720703	1.0563699951171874	0.022009199142456054	-0.09055789947509765	1.03268994140625	0.0299512996673584	-0.05125650024414063	1.0178599853515624	0.06542539978027344	-0.11030599975585938	1.0044400024414062	0.056451301574707034	-0.0950833969116211	1.016510009765625	0.04778910064697266	-0.08051119995117187	1.026239990234375	0.036518600463867186	-0.055425201416015625	1.0398800048828125	-0.009504409790039062	-0.013247900009155274	1.0836800537109375
